<?xml version="1.0" standalone="no"?><!DOCTYPE svg PUBLIC "-//W3C//DTD SVG 1.1//EN" "http://www.w3.org/Graphics/SVG/1.1/DTD/svg11.dtd"><svg t="1566956226944" class="icon" viewBox="0 0 1026 1024" version="1.1" xmlns="http://www.w3.org/2000/svg" p-id="1526" xmlns:xlink="http://www.w3.org/1999/xlink" width="200.390625" height="200"><defs><style type="text/css"></style></defs><path d="M985.3 187.6c-26.8-27.5-62.9-42.6-101.6-42.6H142.1c-37.4 0-72.8 14.4-99.6 40.6C15.1 212.4 0 248.5 0 287.2v414.4c0 37.4 14.4 72.8 40.6 99.6 26.8 27.5 62.9 42.6 101.6 42.6h741.6c36.5 0 72.8-15.5 99.8-42.4s42.4-63.3 42.4-99.8V287.2c-0.1-37.4-14.5-72.8-40.7-99.6z m0.6 514c0 54.4-47.7 102.1-102.1 102.1H142.1c-56.3 0-102.1-45.8-102.1-102.1V368.3h945.9v333.3z m0-377.9H40v-36.5c0-56.3 45.8-102.1 102.1-102.1h741.6c56.3 0 102.1 45.8 102.1 102.1v36.5z" fill="#727171" p-id="1527"></path><path d="M155.2 597c19.8 0 33.1-13.3 33.1-33.1v-56.7c0-19.5-17.4-33.1-33.1-33.1-19.5 0-33.1 17.4-33.1 33.1v56.7c0 19.5 17.5 33.1 33.1 33.1zM255.5 597c19.8 0 33.1-13.3 33.1-33.1v-56.7c0-19.5-17.4-33.1-33.1-33.1-19.5 0-33.1 17.4-33.1 33.1v56.7c0.1 19.5 17.5 33.1 33.1 33.1zM355.9 597c15.6 0 33.1-13.6 33.1-33.1v-56.7c0-19.5-17.4-33.1-33.1-33.1-19.5 0-33.1 17.4-33.1 33.1v56.7c0 19.5 17.4 33.1 33.1 33.1z" fill="#727171" p-id="1528"></path></svg>