<?xml version="1.0" standalone="no"?><!DOCTYPE svg PUBLIC "-//W3C//DTD SVG 1.1//EN" "http://www.w3.org/Graphics/SVG/1.1/DTD/svg11.dtd"><svg t="1566956294032" class="icon" viewBox="0 0 1024 1024" version="1.1" xmlns="http://www.w3.org/2000/svg" p-id="3370" xmlns:xlink="http://www.w3.org/1999/xlink" width="200" height="200"><defs><style type="text/css"></style></defs><path d="M511 866.7c-31.7 0-57.3-25.1-57.3-56s25.7-56 57.3-56 57.3 25.1 57.3 56-25.6 56-57.3 56zM211 138.9c0-41.3 33.4-74.9 74.7-74.9h452.6c41.3 0 74.7 33.5 74.7 74.9v746.3c0 41.3-33.4 74.9-74.7 74.9H285.7c-41.3 0-74.7-33.5-74.7-74.9V138.9z m546 587.8H267v158.5c0 10.4 8.4 18.9 18.7 18.9h452.6c10.3 0 18.7-8.4 18.7-18.9V726.7z m0-56V138.9c0-10.4-8.4-18.9-18.7-18.9H285.7c-10.3 0-18.7 8.4-18.7 18.9v531.8h490z" fill="#666666" p-id="3371"></path></svg>