<?xml version="1.0" standalone="no"?><!DOCTYPE svg PUBLIC "-//W3C//DTD SVG 1.1//EN" "http://www.w3.org/Graphics/SVG/1.1/DTD/svg11.dtd"><svg t="1559723032109" class="icon" style="" viewBox="0 0 1024 1024" version="1.1" xmlns="http://www.w3.org/2000/svg" p-id="2873" xmlns:xlink="http://www.w3.org/1999/xlink" width="200" height="200"><defs><style type="text/css"></style></defs><path d="M174.3 63.9h542.3l184 210.3v637.1c0 26.7-21.7 48.4-48.4 48.4H174.3c-26.7 0-48.4-21.7-48.4-48.4v-799c-0.1-26.8 21.6-48.4 48.4-48.4z" p-id="2874"></path><path d="M710.9 253.6l5-189.7 184.7 210.9-165.5 3c-13.3 0-24.2-10.9-24.2-24.2z" fill="#AFB0FF" p-id="2875"></path><path d="M689.1 475.4c-2.5-0.3-4.7-1.9-6.6-4.8-1.9-2.9-3.4-8.1-4.5-15.8-1.8-12.4-6.3-21.6-13.5-27.4-7.2-5.9-18.4-10.1-33.6-12.6-15.9-2.9-29.9-8.7-42-17.4-12.2-8.7-22.3-17-30.4-24.6-7.8-6.7-13.8-9.1-18-7.2-4.2 1.9-6.4 5.4-6.4 10.5v65.4c0 17.8-0.1 37.1-0.3 57.8-0.2 20.7-0.3 40.2-0.3 58.7v75.9c0.3 7.6-1 16.2-4 25.5-3 9.4-8.6 18.2-16.9 26.5-8.3 8.3-19.3 15.3-33.1 21.3-13.8 5.9-30.9 9.3-51.3 10.3-20.8 1-39.6-2.4-56.4-10-16.7-7.6-29.7-17.3-38.9-28.9-9.2-11.6-13.7-24.4-13.5-38.2 0.2-13.8 6.8-26.8 19.9-38.9 13.1-12.1 27.2-20.5 42.3-25.3 15.1-4.8 29.8-7.4 43.9-7.9 14.1-0.5 26.7 0.4 37.8 2.6 11.1 2.2 19.3 4.3 24.6 6.2V442c0-37.6 0.2-79.9 0.5-127 0-9.2 2.6-16.8 8-22.7 5.3-5.9 12.3-9.3 21.1-10.2 7.4-1 13.5 0.4 18.3 4.1 4.8 3.7 9.6 8.7 14.5 15.3 4.9 6.5 11 13.9 18.3 22.2 7.2 8.3 17 16.4 29.4 24.3 10.6 7.3 19.9 12.6 27.8 15.8 7.9 3.2 15.4 6.1 22.2 8.8 6.9 2.7 13.7 6 20.4 9.8 6.7 3.8 14.1 10 22.2 18.6 8.1 8.3 13.1 16.9 14.8 25.8 1.8 8.9 1.9 17 0.3 24.3-1.6 7.3-4.1 13.3-7.7 17.9-3.4 4.6-6.4 6.7-8.9 6.4z" fill="#FFFFFF" p-id="2876"></path></svg>