<?xml version="1.0" standalone="no"?><!DOCTYPE svg PUBLIC "-//W3C//DTD SVG 1.1//EN" "http://www.w3.org/Graphics/SVG/1.1/DTD/svg11.dtd"><svg t="1559723004137" class="icon" style="" viewBox="0 0 1092 1024" version="1.1" xmlns="http://www.w3.org/2000/svg" p-id="2018" xmlns:xlink="http://www.w3.org/1999/xlink" width="213.28125" height="200"><defs><style type="text/css"></style></defs><path d="M197.973333 341.333333c88.746667 0 163.84-75.093333 163.84-163.84C361.813333 88.746667 286.72 13.653333 197.973333 13.653333 109.226667 13.653333 34.133333 88.746667 34.133333 177.493333 27.306667 266.24 102.4 341.333333 197.973333 341.333333zM607.573333 341.333333c88.746667 0 163.84-75.093333 163.84-163.84 0-88.746667-75.093333-163.84-163.84-163.84-88.746667 0-163.84 75.093333-163.84 163.84C436.906667 266.24 512 341.333333 607.573333 341.333333zM1051.306667 505.173333c-27.306667-13.653333-54.613333-13.653333-88.746667 6.826667l-163.84 95.573333v-20.48c0-75.093333-61.44-136.533333-136.533333-136.533333H136.533333c-75.093333 0-136.533333 61.44-136.533333 136.533333v293.546667c0 75.093333 61.44 136.533333 136.533333 136.533333h525.653334c75.093333 0 136.533333-61.44 136.533333-136.533333v-27.306667l163.84 95.573334c20.48 13.653333 40.96 20.48 54.613333 20.48 13.653333 0 27.306667 0 34.133334-6.826667 27.306667-13.653333 40.96-40.96 40.96-81.92V587.093333c0-40.96-13.653333-68.266667-40.96-81.92z" p-id="2019"></path></svg>